<?xml version="1.0" encoding="UTF-8" standalone="no"?>
<!-- Created with Inkscape (http://www.inkscape.org/) -->

<svg
   version="1.1"
   id="svg211"
   xml:space="preserve"
   width="2666.6667"
   height="2666.6667"
   viewBox="0 0 2666.6667 2666.6667"
   xmlns="http://www.w3.org/2000/svg"
   xmlns:svg="http://www.w3.org/2000/svg"><defs
     id="defs215"><clipPath
       clipPathUnits="userSpaceOnUse"
       id="clipPath225"><path
         d="M 0,2000 H 2000 V 0 H 0 Z"
         id="path223" /></clipPath></defs><g
     id="g217"
     transform="matrix(1.3333333,0,0,-1.3333333,0,2666.6667)"><g
       id="g219"><g
         id="g221"
         clip-path="url(#clipPath225)"><g
           id="g227"
           transform="translate(896.8037,1564.7471)"><path
             d="m 0,0 c 0,-45.707 -37.053,-82.76 -82.761,-82.76 -45.707,0 -82.76,37.053 -82.76,82.76 0,45.708 37.053,82.761 82.76,82.761 C -37.053,82.761 0,45.708 0,0"
             style="fill:#002a3e;fill-opacity:1;fill-rule:nonzero;stroke:none"
             id="path229" /></g><g
           id="g231"
           transform="translate(1082.2607,1564.7471)"><path
             d="m 0,0 c 0,-45.707 -37.054,-82.76 -82.761,-82.76 -45.707,0 -82.76,37.053 -82.76,82.76 0,45.708 37.053,82.761 82.76,82.761 C -37.054,82.761 0,45.708 0,0"
             style="fill:#002a3e;fill-opacity:1;fill-rule:nonzero;stroke:none"
             id="path233" /></g><g
           id="g235"
           transform="translate(1267.7178,1564.7471)"><path
             d="m 0,0 c 0,-45.707 -37.054,-82.76 -82.761,-82.76 -45.707,0 -82.76,37.053 -82.76,82.76 0,45.708 37.053,82.761 82.76,82.761 C -37.054,82.761 0,45.708 0,0"
             style="fill:#002a3e;fill-opacity:1;fill-rule:nonzero;stroke:none"
             id="path237" /></g><g
           id="g239"
           transform="translate(711.3467,1002.6753)"><path
             d="m 0,0 c 0,-45.708 -37.053,-82.76 -82.761,-82.76 -45.707,0 -82.76,37.052 -82.76,82.76 0,45.707 37.053,82.76 82.76,82.76 C -37.053,82.76 0,45.707 0,0"
             style="fill:#002a3e;fill-opacity:1;fill-rule:nonzero;stroke:none"
             id="path241" /></g><g
           id="g243"
           transform="translate(1453.1748,1002.6753)"><path
             d="m 0,0 c 0,-45.708 -37.054,-82.76 -82.761,-82.76 -45.707,0 -82.76,37.052 -82.76,82.76 0,45.707 37.053,82.76 82.76,82.76 C -37.054,82.76 0,45.707 0,0"
             style="fill:#002a3e;fill-opacity:1;fill-rule:nonzero;stroke:none"
             id="path245" /></g><g
           id="g247"
           transform="translate(1267.7178,815.3174)"><path
             d="m 0,0 c 0,-45.707 -37.054,-82.76 -82.761,-82.76 -45.707,0 -82.76,37.053 -82.76,82.76 0,45.708 37.053,82.761 82.76,82.761 C -37.054,82.761 0,45.708 0,0"
             style="fill:#002a3e;fill-opacity:1;fill-rule:nonzero;stroke:none"
             id="path249" /></g><g
           id="g251"
           transform="translate(896.8037,1002.6753)"><path
             d="m 0,0 c 0,-45.708 -37.053,-82.76 -82.761,-82.76 -45.707,0 -82.76,37.052 -82.76,82.76 0,45.707 37.053,82.76 82.76,82.76 C -37.053,82.76 0,45.707 0,0"
             style="fill:#002a3e;fill-opacity:1;fill-rule:nonzero;stroke:none"
             id="path253" /></g><g
           id="g255"
           transform="translate(1082.2607,1377.3896)"><path
             d="m 0,0 c 0,-45.707 -37.054,-82.76 -82.761,-82.76 -45.707,0 -82.76,37.053 -82.76,82.76 0,45.708 37.053,82.761 82.76,82.761 C -37.054,82.761 0,45.708 0,0"
             style="fill:#002a3e;fill-opacity:1;fill-rule:nonzero;stroke:none"
             id="path257" /></g><g
           id="g259"
           transform="translate(1082.2607,1190.0322)"><path
             d="m 0,0 c 0,-45.707 -37.054,-82.76 -82.761,-82.76 -45.707,0 -82.76,37.053 -82.76,82.76 0,45.708 37.053,82.761 82.76,82.761 C -37.054,82.761 0,45.708 0,0"
             style="fill:#002a3e;fill-opacity:1;fill-rule:nonzero;stroke:none"
             id="path261" /></g><g
           id="g263"
           transform="translate(1082.2607,815.3174)"><path
             d="m 0,0 c 0,-45.707 -37.054,-82.76 -82.761,-82.76 -45.707,0 -82.76,37.053 -82.76,82.76 0,45.708 37.053,82.761 82.76,82.761 C -37.054,82.761 0,45.708 0,0"
             style="fill:#002a3e;fill-opacity:1;fill-rule:nonzero;stroke:none"
             id="path265" /></g><g
           id="g267"
           transform="translate(1082.2607,1002.6753)"><path
             d="m 0,0 c 0,-45.708 -37.054,-82.76 -82.761,-82.76 -45.707,0 -82.76,37.052 -82.76,82.76 0,45.707 37.053,82.76 82.76,82.76 C -37.054,82.76 0,45.707 0,0"
             style="fill:#002a3e;fill-opacity:1;fill-rule:nonzero;stroke:none"
             id="path269" /></g><g
           id="g271"
           transform="translate(1082.2607,627.96)"><path
             d="m 0,0 c 0,-45.707 -37.054,-82.76 -82.761,-82.76 -45.707,0 -82.76,37.053 -82.76,82.76 0,45.708 37.053,82.761 82.76,82.761 C -37.054,82.761 0,45.708 0,0"
             style="fill:#002a3e;fill-opacity:1;fill-rule:nonzero;stroke:none"
             id="path273" /></g><g
           id="g275"
           transform="translate(1267.7178,1002.6753)"><path
             d="m 0,0 c 0,-45.708 -37.054,-82.76 -82.761,-82.76 -45.707,0 -82.76,37.052 -82.76,82.76 0,45.707 37.053,82.76 82.76,82.76 C -37.054,82.76 0,45.707 0,0"
             style="fill:#002a3e;fill-opacity:1;fill-rule:nonzero;stroke:none"
             id="path277" /></g><g
           id="g279"
           transform="translate(896.8037,440.6025)"><path
             d="m 0,0 c 0,-45.707 -37.053,-82.76 -82.761,-82.76 -45.707,0 -82.76,37.053 -82.76,82.76 0,45.708 37.053,82.761 82.76,82.761 C -37.053,82.761 0,45.708 0,0"
             style="fill:#002a3e;fill-opacity:1;fill-rule:nonzero;stroke:none"
             id="path281" /></g><g
           id="g283"
           transform="translate(1082.2607,440.6025)"><path
             d="m 0,0 c 0,-45.707 -37.054,-82.76 -82.761,-82.76 -45.707,0 -82.76,37.053 -82.76,82.76 0,45.708 37.053,82.761 82.76,82.761 C -37.054,82.761 0,45.708 0,0"
             style="fill:#002a3e;fill-opacity:1;fill-rule:nonzero;stroke:none"
             id="path285" /></g><g
           id="g287"
           transform="translate(1267.7178,440.6025)"><path
             d="m 0,0 c 0,-45.707 -37.054,-82.76 -82.761,-82.76 -45.707,0 -82.76,37.053 -82.76,82.76 0,45.708 37.053,82.761 82.76,82.761 C -37.054,82.761 0,45.708 0,0"
             style="fill:#002a3e;fill-opacity:1;fill-rule:nonzero;stroke:none"
             id="path289" /></g><g
           id="g291"
           transform="translate(1267.7178,1190.0322)"><path
             d="m 0,0 c 0,-45.707 -37.054,-82.76 -82.761,-82.76 -45.707,0 -82.76,37.053 -82.76,82.76 0,45.708 37.053,82.761 82.76,82.761 C -37.054,82.761 0,45.708 0,0"
             style="fill:#002a3e;fill-opacity:1;fill-rule:nonzero;stroke:none"
             id="path293" /></g><g
           id="g295"
           transform="translate(1638.6309,1190.0322)"><path
             d="m 0,0 c 0,-45.707 -37.053,-82.76 -82.76,-82.76 -45.708,0 -82.761,37.053 -82.761,82.76 0,45.708 37.053,82.761 82.761,82.761 C -37.053,82.761 0,45.708 0,0"
             style="fill:#002a3e;fill-opacity:1;fill-rule:nonzero;stroke:none"
             id="path297" /></g><g
           id="g299"
           transform="translate(1638.6309,815.3174)"><path
             d="m 0,0 c 0,-45.707 -37.053,-82.76 -82.76,-82.76 -45.708,0 -82.761,37.053 -82.761,82.76 0,45.708 37.053,82.761 82.761,82.761 C -37.053,82.761 0,45.708 0,0"
             style="fill:#002a3e;fill-opacity:1;fill-rule:nonzero;stroke:none"
             id="path301" /></g><g
           id="g303"
           transform="translate(1638.6309,1002.6753)"><path
             d="m 0,0 c 0,-45.708 -37.053,-82.76 -82.76,-82.76 -45.708,0 -82.761,37.052 -82.761,82.76 0,45.707 37.053,82.76 82.761,82.76 C -37.053,82.76 0,45.707 0,0"
             style="fill:#002a3e;fill-opacity:1;fill-rule:nonzero;stroke:none"
             id="path305" /></g><g
           id="g307"
           transform="translate(896.8037,815.3174)"><path
             d="m 0,0 c 0,-45.707 -37.053,-82.76 -82.761,-82.76 -45.707,0 -82.76,37.053 -82.76,82.76 0,45.708 37.053,82.761 82.76,82.761 C -37.053,82.761 0,45.708 0,0"
             style="fill:#002a3e;fill-opacity:1;fill-rule:nonzero;stroke:none"
             id="path309" /></g><g
           id="g311"
           transform="translate(896.8037,1190.0322)"><path
             d="m 0,0 c 0,-45.707 -37.053,-82.76 -82.761,-82.76 -45.707,0 -82.76,37.053 -82.76,82.76 0,45.708 37.053,82.761 82.76,82.761 C -37.053,82.761 0,45.708 0,0"
             style="fill:#002a3e;fill-opacity:1;fill-rule:nonzero;stroke:none"
             id="path313" /></g><g
           id="g315"
           transform="translate(525.8896,1190.0322)"><path
             d="m 0,0 c 0,-45.707 -37.053,-82.76 -82.76,-82.76 -45.708,0 -82.761,37.053 -82.761,82.76 0,45.708 37.053,82.761 82.761,82.761 C -37.053,82.761 0,45.708 0,0"
             style="fill:#002a3e;fill-opacity:1;fill-rule:nonzero;stroke:none"
             id="path317" /></g><g
           id="g319"
           transform="translate(525.8896,815.3174)"><path
             d="m 0,0 c 0,-45.707 -37.053,-82.76 -82.76,-82.76 -45.708,0 -82.761,37.053 -82.761,82.76 0,45.708 37.053,82.761 82.761,82.761 C -37.053,82.761 0,45.708 0,0"
             style="fill:#002a3e;fill-opacity:1;fill-rule:nonzero;stroke:none"
             id="path321" /></g><g
           id="g323"
           transform="translate(525.8896,1002.6753)"><path
             d="m 0,0 c 0,-45.708 -37.053,-82.76 -82.76,-82.76 -45.708,0 -82.761,37.052 -82.761,82.76 0,45.707 37.053,82.76 82.761,82.76 C -37.053,82.76 0,45.707 0,0"
             style="fill:#002a3e;fill-opacity:1;fill-rule:nonzero;stroke:none"
             id="path325" /></g></g></g></g></svg>
