<?xml version="1.0" encoding="UTF-8" standalone="no"?>
<!-- Created with Inkscape (http://www.inkscape.org/) -->

<svg
   version="1.1"
   id="svg615"
   xml:space="preserve"
   width="2666.6667"
   height="2666.6667"
   viewBox="0 0 2666.6667 2666.6667"
   xmlns="http://www.w3.org/2000/svg"
   xmlns:svg="http://www.w3.org/2000/svg"><defs
     id="defs619"><clipPath
       clipPathUnits="userSpaceOnUse"
       id="clipPath629"><path
         d="M 0,2000 H 2000 V 0 H 0 Z"
         id="path627" /></clipPath></defs><g
     id="g621"
     transform="matrix(1.3333333,0,0,-1.3333333,0,2666.6667)"><g
       id="g623"><g
         id="g625"
         clip-path="url(#clipPath629)"><g
           id="g631"
           transform="translate(896.8037,1564.7472)"><path
             d="m 0,0 c 0,-45.707 -37.053,-82.761 -82.761,-82.761 -45.707,0 -82.76,37.054 -82.76,82.761 0,45.707 37.053,82.761 82.76,82.761 C -37.053,82.761 0,45.707 0,0"
             style="fill:#002a3e;fill-opacity:1;fill-rule:nonzero;stroke:none"
             id="path633" /></g><g
           id="g635"
           transform="translate(1082.2607,1564.7472)"><path
             d="m 0,0 c 0,-45.707 -37.054,-82.761 -82.761,-82.761 -45.707,0 -82.76,37.054 -82.76,82.761 0,45.707 37.053,82.761 82.76,82.761 C -37.054,82.761 0,45.707 0,0"
             style="fill:#002a3e;fill-opacity:1;fill-rule:nonzero;stroke:none"
             id="path637" /></g><g
           id="g639"
           transform="translate(1267.7178,1564.7472)"><path
             d="m 0,0 c 0,-45.707 -37.054,-82.761 -82.761,-82.761 -45.707,0 -82.76,37.054 -82.76,82.761 0,45.707 37.053,82.761 82.76,82.761 C -37.054,82.761 0,45.707 0,0"
             style="fill:#002a3e;fill-opacity:1;fill-rule:nonzero;stroke:none"
             id="path641" /></g><g
           id="g643"
           transform="translate(711.3467,1377.3898)"><path
             d="m 0,0 c 0,-45.707 -37.053,-82.761 -82.761,-82.761 -45.707,0 -82.76,37.054 -82.76,82.761 0,45.707 37.053,82.761 82.76,82.761 C -37.053,82.761 0,45.707 0,0"
             style="fill:#002a3e;fill-opacity:1;fill-rule:nonzero;stroke:none"
             id="path645" /></g><g
           id="g647"
           transform="translate(1453.1748,1377.3898)"><path
             d="m 0,0 c 0,-45.707 -37.054,-82.761 -82.761,-82.761 -45.707,0 -82.76,37.054 -82.76,82.761 0,45.707 37.053,82.761 82.76,82.761 C -37.054,82.761 0,45.707 0,0"
             style="fill:#002a3e;fill-opacity:1;fill-rule:nonzero;stroke:none"
             id="path649" /></g><g
           id="g651"
           transform="translate(711.3467,1190.0323)"><path
             d="m 0,0 c 0,-45.707 -37.053,-82.761 -82.761,-82.761 -45.707,0 -82.76,37.054 -82.76,82.761 0,45.707 37.053,82.761 82.76,82.761 C -37.053,82.761 0,45.707 0,0"
             style="fill:#002a3e;fill-opacity:1;fill-rule:nonzero;stroke:none"
             id="path653" /></g><g
           id="g655"
           transform="translate(711.3467,1002.6749)"><path
             d="m 0,0 c 0,-45.707 -37.053,-82.761 -82.761,-82.761 -45.707,0 -82.76,37.054 -82.76,82.761 0,45.707 37.053,82.761 82.76,82.761 C -37.053,82.761 0,45.707 0,0"
             style="fill:#002a3e;fill-opacity:1;fill-rule:nonzero;stroke:none"
             id="path657" /></g><g
           id="g659"
           transform="translate(1453.1748,1190.0323)"><path
             d="m 0,0 c 0,-45.707 -37.054,-82.761 -82.761,-82.761 -45.707,0 -82.76,37.054 -82.76,82.761 0,45.707 37.053,82.761 82.76,82.761 C -37.054,82.761 0,45.707 0,0"
             style="fill:#002a3e;fill-opacity:1;fill-rule:nonzero;stroke:none"
             id="path661" /></g><g
           id="g663"
           transform="translate(1453.1748,1002.6749)"><path
             d="m 0,0 c 0,-45.707 -37.054,-82.761 -82.761,-82.761 -45.707,0 -82.76,37.054 -82.76,82.761 0,45.707 37.053,82.761 82.76,82.761 C -37.054,82.761 0,45.707 0,0"
             style="fill:#002a3e;fill-opacity:1;fill-rule:nonzero;stroke:none"
             id="path665" /></g><g
           id="g667"
           transform="translate(896.8037,1377.3898)"><path
             d="m 0,0 c 0,-45.707 -37.053,-82.761 -82.761,-82.761 -45.707,0 -82.76,37.054 -82.76,82.761 0,45.707 37.053,82.761 82.76,82.761 C -37.053,82.761 0,45.707 0,0"
             style="fill:#002a3e;fill-opacity:1;fill-rule:nonzero;stroke:none"
             id="path669" /></g><g
           id="g671"
           transform="translate(896.8037,1190.0323)"><path
             d="m 0,0 c 0,-45.707 -37.053,-82.761 -82.761,-82.761 -45.707,0 -82.76,37.054 -82.76,82.761 0,45.707 37.053,82.761 82.76,82.761 C -37.053,82.761 0,45.707 0,0"
             style="fill:#002a3e;fill-opacity:1;fill-rule:nonzero;stroke:none"
             id="path673" /></g><g
           id="g675"
           transform="translate(896.8037,815.3175)"><path
             d="m 0,0 c 0,-45.707 -37.053,-82.761 -82.761,-82.761 -45.707,0 -82.76,37.054 -82.76,82.761 0,45.707 37.053,82.761 82.76,82.761 C -37.053,82.761 0,45.707 0,0"
             style="fill:#002a3e;fill-opacity:1;fill-rule:nonzero;stroke:none"
             id="path677" /></g><g
           id="g679"
           transform="translate(896.8037,1002.6749)"><path
             d="m 0,0 c 0,-45.707 -37.053,-82.761 -82.761,-82.761 -45.707,0 -82.76,37.054 -82.76,82.761 0,45.707 37.053,82.761 82.76,82.761 C -37.053,82.761 0,45.707 0,0"
             style="fill:#002a3e;fill-opacity:1;fill-rule:nonzero;stroke:none"
             id="path681" /></g><g
           id="g683"
           transform="translate(1082.2607,1377.3898)"><path
             d="m 0,0 c 0,-45.707 -37.054,-82.761 -82.761,-82.761 -45.707,0 -82.76,37.054 -82.76,82.761 0,45.707 37.053,82.761 82.76,82.761 C -37.054,82.761 0,45.707 0,0"
             style="fill:#002a3e;fill-opacity:1;fill-rule:nonzero;stroke:none"
             id="path685" /></g><g
           id="g687"
           transform="translate(1082.2607,815.3175)"><path
             d="m 0,0 c 0,-45.707 -37.054,-82.761 -82.761,-82.761 -45.707,0 -82.76,37.054 -82.76,82.761 0,45.707 37.053,82.761 82.76,82.761 C -37.054,82.761 0,45.707 0,0"
             style="fill:#002a3e;fill-opacity:1;fill-rule:nonzero;stroke:none"
             id="path689" /></g><g
           id="g691"
           transform="translate(1082.2607,1002.6749)"><path
             d="m 0,0 c 0,-45.707 -37.054,-82.761 -82.761,-82.761 -45.707,0 -82.76,37.054 -82.76,82.761 0,45.707 37.053,82.761 82.76,82.761 C -37.054,82.761 0,45.707 0,0"
             style="fill:#002a3e;fill-opacity:1;fill-rule:nonzero;stroke:none"
             id="path693" /></g><g
           id="g695"
           transform="translate(1082.2607,627.9601)"><path
             d="m 0,0 c 0,-45.707 -37.054,-82.761 -82.761,-82.761 -45.707,0 -82.76,37.054 -82.76,82.761 0,45.707 37.053,82.761 82.76,82.761 C -37.054,82.761 0,45.707 0,0"
             style="fill:#002a3e;fill-opacity:1;fill-rule:nonzero;stroke:none"
             id="path697" /></g><g
           id="g699"
           transform="translate(1267.7178,1377.3898)"><path
             d="m 0,0 c 0,-45.707 -37.054,-82.761 -82.761,-82.761 -45.707,0 -82.76,37.054 -82.76,82.761 0,45.707 37.053,82.761 82.76,82.761 C -37.054,82.761 0,45.707 0,0"
             style="fill:#002a3e;fill-opacity:1;fill-rule:nonzero;stroke:none"
             id="path701" /></g><g
           id="g703"
           transform="translate(1267.7178,1190.0323)"><path
             d="m 0,0 c 0,-45.707 -37.054,-82.761 -82.761,-82.761 -45.707,0 -82.76,37.054 -82.76,82.761 0,45.707 37.053,82.761 82.76,82.761 C -37.054,82.761 0,45.707 0,0"
             style="fill:#002a3e;fill-opacity:1;fill-rule:nonzero;stroke:none"
             id="path705" /></g><g
           id="g707"
           transform="translate(1267.7178,815.3175)"><path
             d="m 0,0 c 0,-45.707 -37.054,-82.761 -82.761,-82.761 -45.707,0 -82.76,37.054 -82.76,82.761 0,45.707 37.053,82.761 82.76,82.761 C -37.054,82.761 0,45.707 0,0"
             style="fill:#002a3e;fill-opacity:1;fill-rule:nonzero;stroke:none"
             id="path709" /></g><g
           id="g711"
           transform="translate(1453.1748,815.3175)"><path
             d="m 0,0 c 0,-45.707 -37.054,-82.761 -82.761,-82.761 -45.707,0 -82.76,37.054 -82.76,82.761 0,45.707 37.053,82.761 82.76,82.761 C -37.054,82.761 0,45.707 0,0"
             style="fill:#002a3e;fill-opacity:1;fill-rule:nonzero;stroke:none"
             id="path713" /></g><g
           id="g715"
           transform="translate(1267.7178,1002.6749)"><path
             d="m 0,0 c 0,-45.707 -37.054,-82.761 -82.761,-82.761 -45.707,0 -82.76,37.054 -82.76,82.761 0,45.707 37.053,82.761 82.76,82.761 C -37.054,82.761 0,45.707 0,0"
             style="fill:#002a3e;fill-opacity:1;fill-rule:nonzero;stroke:none"
             id="path717" /></g><g
           id="g719"
           transform="translate(1267.7178,627.9601)"><path
             d="m 0,0 c 0,-45.707 -37.054,-82.761 -82.761,-82.761 -45.707,0 -82.76,37.054 -82.76,82.761 0,45.707 37.053,82.761 82.76,82.761 C -37.054,82.761 0,45.707 0,0"
             style="fill:#002a3e;fill-opacity:1;fill-rule:nonzero;stroke:none"
             id="path721" /></g><g
           id="g723"
           transform="translate(896.8037,627.9601)"><path
             d="m 0,0 c 0,-45.707 -37.053,-82.761 -82.761,-82.761 -45.707,0 -82.76,37.054 -82.76,82.761 0,45.707 37.053,82.761 82.76,82.761 C -37.053,82.761 0,45.707 0,0"
             style="fill:#002a3e;fill-opacity:1;fill-rule:nonzero;stroke:none"
             id="path725" /></g><g
           id="g727"
           transform="translate(711.3467,815.3175)"><path
             d="m 0,0 c 0,-45.707 -37.053,-82.761 -82.761,-82.761 -45.707,0 -82.76,37.054 -82.76,82.761 0,45.707 37.053,82.761 82.76,82.761 C -37.053,82.761 0,45.707 0,0"
             style="fill:#002a3e;fill-opacity:1;fill-rule:nonzero;stroke:none"
             id="path729" /></g><g
           id="g731"
           transform="translate(1082.2607,440.6027)"><path
             d="m 0,0 c 0,-45.707 -37.054,-82.76 -82.761,-82.76 -45.707,0 -82.76,37.053 -82.76,82.76 0,45.708 37.053,82.761 82.76,82.761 C -37.054,82.761 0,45.708 0,0"
             style="fill:#002a3e;fill-opacity:1;fill-rule:nonzero;stroke:none"
             id="path733" /></g></g></g></g></svg>
