<?xml version="1.0" encoding="UTF-8" standalone="no"?>
<!-- Created with Inkscape (http://www.inkscape.org/) -->

<svg
   version="1.1"
   id="svg401"
   xml:space="preserve"
   width="2666.6667"
   height="2666.6667"
   viewBox="0 0 2666.6667 2666.6667"
   xmlns="http://www.w3.org/2000/svg"
   xmlns:svg="http://www.w3.org/2000/svg"><defs
     id="defs405"><clipPath
       clipPathUnits="userSpaceOnUse"
       id="clipPath415"><path
         d="M 0,2000 H 2000 V 0 H 0 Z"
         id="path413" /></clipPath></defs><g
     id="g407"
     transform="matrix(1.3333333,0,0,-1.3333333,0,2666.6667)"><g
       id="g409"><g
         id="g411"
         clip-path="url(#clipPath415)"><g
           id="g417"
           transform="translate(896.8031,1564.7471)"><path
             d="m 0,0 c 0,-45.707 -37.053,-82.76 -82.76,-82.76 -45.708,0 -82.761,37.053 -82.761,82.76 0,45.708 37.053,82.761 82.761,82.761 C -37.053,82.761 0,45.708 0,0"
             style="fill:#002a3e;fill-opacity:1;fill-rule:nonzero;stroke:none"
             id="path419" /></g><g
           id="g421"
           transform="translate(711.347,1564.7471)"><path
             d="m 0,0 c 0,-45.707 -37.054,-82.76 -82.761,-82.76 -45.707,0 -82.76,37.053 -82.76,82.76 0,45.708 37.053,82.761 82.76,82.761 C -37.054,82.761 0,45.708 0,0"
             style="fill:#002a3e;fill-opacity:1;fill-rule:nonzero;stroke:none"
             id="path423" /></g><g
           id="g425"
           transform="translate(1082.2601,1564.7471)"><path
             d="m 0,0 c 0,-45.707 -37.053,-82.76 -82.76,-82.76 -45.708,0 -82.761,37.053 -82.761,82.76 0,45.708 37.053,82.761 82.761,82.761 C -37.053,82.761 0,45.708 0,0"
             style="fill:#002a3e;fill-opacity:1;fill-rule:nonzero;stroke:none"
             id="path427" /></g><g
           id="g429"
           transform="translate(711.347,1377.3896)"><path
             d="m 0,0 c 0,-45.707 -37.054,-82.76 -82.761,-82.76 -45.707,0 -82.76,37.053 -82.76,82.76 0,45.708 37.053,82.761 82.76,82.761 C -37.054,82.761 0,45.708 0,0"
             style="fill:#002a3e;fill-opacity:1;fill-rule:nonzero;stroke:none"
             id="path431" /></g><g
           id="g433"
           transform="translate(711.347,1190.0322)"><path
             d="m 0,0 c 0,-45.707 -37.054,-82.76 -82.761,-82.76 -45.707,0 -82.76,37.053 -82.76,82.76 0,45.708 37.053,82.761 82.76,82.761 C -37.054,82.761 0,45.708 0,0"
             style="fill:#002a3e;fill-opacity:1;fill-rule:nonzero;stroke:none"
             id="path435" /></g><g
           id="g437"
           transform="translate(711.347,815.3174)"><path
             d="m 0,0 c 0,-45.707 -37.054,-82.76 -82.761,-82.76 -45.707,0 -82.76,37.053 -82.76,82.76 0,45.708 37.053,82.761 82.76,82.761 C -37.054,82.761 0,45.708 0,0"
             style="fill:#002a3e;fill-opacity:1;fill-rule:nonzero;stroke:none"
             id="path439" /></g><g
           id="g441"
           transform="translate(711.347,1002.6753)"><path
             d="m 0,0 c 0,-45.708 -37.054,-82.76 -82.761,-82.76 -45.707,0 -82.76,37.052 -82.76,82.76 0,45.707 37.053,82.76 82.76,82.76 C -37.054,82.76 0,45.707 0,0"
             style="fill:#002a3e;fill-opacity:1;fill-rule:nonzero;stroke:none"
             id="path443" /></g><g
           id="g445"
           transform="translate(1453.1742,1190.0322)"><path
             d="m 0,0 c 0,-45.707 -37.053,-82.76 -82.761,-82.76 -45.707,0 -82.76,37.053 -82.76,82.76 0,45.708 37.053,82.761 82.76,82.761 C -37.053,82.761 0,45.708 0,0"
             style="fill:#002a3e;fill-opacity:1;fill-rule:nonzero;stroke:none"
             id="path447" /></g><g
           id="g449"
           transform="translate(1453.1742,1002.6753)"><path
             d="m 0,0 c 0,-45.708 -37.053,-82.76 -82.761,-82.76 -45.707,0 -82.76,37.052 -82.76,82.76 0,45.707 37.053,82.76 82.76,82.76 C -37.053,82.76 0,45.707 0,0"
             style="fill:#002a3e;fill-opacity:1;fill-rule:nonzero;stroke:none"
             id="path451" /></g><g
           id="g453"
           transform="translate(1453.1742,815.3174)"><path
             d="m 0,0 c 0,-45.707 -37.053,-82.76 -82.761,-82.76 -45.707,0 -82.76,37.053 -82.76,82.76 0,45.708 37.053,82.761 82.76,82.761 C -37.053,82.761 0,45.708 0,0"
             style="fill:#002a3e;fill-opacity:1;fill-rule:nonzero;stroke:none"
             id="path455" /></g><g
           id="g457"
           transform="translate(711.347,627.96)"><path
             d="m 0,0 c 0,-45.707 -37.054,-82.76 -82.761,-82.76 -45.707,0 -82.76,37.053 -82.76,82.76 0,45.708 37.053,82.761 82.76,82.761 C -37.054,82.761 0,45.708 0,0"
             style="fill:#002a3e;fill-opacity:1;fill-rule:nonzero;stroke:none"
             id="path459" /></g><g
           id="g461"
           transform="translate(711.347,440.6025)"><path
             d="m 0,0 c 0,-45.707 -37.054,-82.76 -82.761,-82.76 -45.707,0 -82.76,37.053 -82.76,82.76 0,45.708 37.053,82.761 82.76,82.761 C -37.054,82.761 0,45.708 0,0"
             style="fill:#002a3e;fill-opacity:1;fill-rule:nonzero;stroke:none"
             id="path463" /></g><g
           id="g465"
           transform="translate(896.8031,1377.3896)"><path
             d="m 0,0 c 0,-45.707 -37.053,-82.76 -82.76,-82.76 -45.708,0 -82.761,37.053 -82.761,82.76 0,45.708 37.053,82.761 82.761,82.761 C -37.053,82.761 0,45.708 0,0"
             style="fill:#002a3e;fill-opacity:1;fill-rule:nonzero;stroke:none"
             id="path467" /></g><g
           id="g469"
           transform="translate(896.8031,1190.0322)"><path
             d="m 0,0 c 0,-45.707 -37.053,-82.76 -82.76,-82.76 -45.708,0 -82.761,37.053 -82.761,82.76 0,45.708 37.053,82.761 82.761,82.761 C -37.053,82.761 0,45.708 0,0"
             style="fill:#002a3e;fill-opacity:1;fill-rule:nonzero;stroke:none"
             id="path471" /></g><g
           id="g473"
           transform="translate(896.8031,815.3174)"><path
             d="m 0,0 c 0,-45.707 -37.053,-82.76 -82.76,-82.76 -45.708,0 -82.761,37.053 -82.761,82.76 0,45.708 37.053,82.761 82.761,82.761 C -37.053,82.761 0,45.708 0,0"
             style="fill:#002a3e;fill-opacity:1;fill-rule:nonzero;stroke:none"
             id="path475" /></g><g
           id="g477"
           transform="translate(896.8031,1002.6753)"><path
             d="m 0,0 c 0,-45.708 -37.053,-82.76 -82.76,-82.76 -45.708,0 -82.761,37.052 -82.761,82.76 0,45.707 37.053,82.76 82.761,82.76 C -37.053,82.76 0,45.707 0,0"
             style="fill:#002a3e;fill-opacity:1;fill-rule:nonzero;stroke:none"
             id="path479" /></g><g
           id="g481"
           transform="translate(896.8031,627.96)"><path
             d="m 0,0 c 0,-45.707 -37.053,-82.76 -82.76,-82.76 -45.708,0 -82.761,37.053 -82.761,82.76 0,45.708 37.053,82.761 82.761,82.761 C -37.053,82.761 0,45.708 0,0"
             style="fill:#002a3e;fill-opacity:1;fill-rule:nonzero;stroke:none"
             id="path483" /></g><g
           id="g485"
           transform="translate(1082.2601,815.3174)"><path
             d="m 0,0 c 0,-45.707 -37.053,-82.76 -82.76,-82.76 -45.708,0 -82.761,37.053 -82.761,82.76 0,45.708 37.053,82.761 82.761,82.761 C -37.053,82.761 0,45.708 0,0"
             style="fill:#002a3e;fill-opacity:1;fill-rule:nonzero;stroke:none"
             id="path487" /></g><g
           id="g489"
           transform="translate(1082.2601,1002.6753)"><path
             d="m 0,0 c 0,-45.708 -37.053,-82.76 -82.76,-82.76 -45.708,0 -82.761,37.052 -82.761,82.76 0,45.707 37.053,82.76 82.761,82.76 C -37.053,82.76 0,45.707 0,0"
             style="fill:#002a3e;fill-opacity:1;fill-rule:nonzero;stroke:none"
             id="path491" /></g><g
           id="g493"
           transform="translate(1082.2601,627.96)"><path
             d="m 0,0 c 0,-45.707 -37.053,-82.76 -82.76,-82.76 -45.708,0 -82.761,37.053 -82.761,82.76 0,45.708 37.053,82.761 82.761,82.761 C -37.053,82.761 0,45.708 0,0"
             style="fill:#002a3e;fill-opacity:1;fill-rule:nonzero;stroke:none"
             id="path495" /></g><g
           id="g497"
           transform="translate(1267.7172,1377.3896)"><path
             d="m 0,0 c 0,-45.707 -37.053,-82.76 -82.76,-82.76 -45.708,0 -82.761,37.053 -82.761,82.76 0,45.708 37.053,82.761 82.761,82.761 C -37.053,82.761 0,45.708 0,0"
             style="fill:#002a3e;fill-opacity:1;fill-rule:nonzero;stroke:none"
             id="path499" /></g><g
           id="g501"
           transform="translate(1267.7172,815.3174)"><path
             d="m 0,0 c 0,-45.707 -37.053,-82.76 -82.76,-82.76 -45.708,0 -82.761,37.053 -82.761,82.76 0,45.708 37.053,82.761 82.761,82.761 C -37.053,82.761 0,45.708 0,0"
             style="fill:#002a3e;fill-opacity:1;fill-rule:nonzero;stroke:none"
             id="path503" /></g><g
           id="g505"
           transform="translate(1267.7172,1002.6753)"><path
             d="m 0,0 c 0,-45.708 -37.053,-82.76 -82.76,-82.76 -45.708,0 -82.761,37.052 -82.761,82.76 0,45.707 37.053,82.76 82.761,82.76 C -37.053,82.76 0,45.707 0,0"
             style="fill:#002a3e;fill-opacity:1;fill-rule:nonzero;stroke:none"
             id="path507" /></g><g
           id="g509"
           transform="translate(1267.7172,627.96)"><path
             d="m 0,0 c 0,-45.707 -37.053,-82.76 -82.76,-82.76 -45.708,0 -82.761,37.053 -82.761,82.76 0,45.708 37.053,82.761 82.761,82.761 C -37.053,82.761 0,45.708 0,0"
             style="fill:#002a3e;fill-opacity:1;fill-rule:nonzero;stroke:none"
             id="path511" /></g><g
           id="g513"
           transform="translate(1453.1742,627.96)"><path
             d="m 0,0 c 0,-45.707 -37.053,-82.76 -82.761,-82.76 -45.707,0 -82.76,37.053 -82.76,82.76 0,45.708 37.053,82.761 82.76,82.761 C -37.053,82.761 0,45.708 0,0"
             style="fill:#002a3e;fill-opacity:1;fill-rule:nonzero;stroke:none"
             id="path515" /></g><g
           id="g517"
           transform="translate(1453.1742,440.6025)"><path
             d="m 0,0 c 0,-45.707 -37.053,-82.76 -82.761,-82.76 -45.707,0 -82.76,37.053 -82.76,82.76 0,45.708 37.053,82.761 82.76,82.761 C -37.053,82.761 0,45.708 0,0"
             style="fill:#002a3e;fill-opacity:1;fill-rule:nonzero;stroke:none"
             id="path519" /></g><g
           id="g521"
           transform="translate(896.8031,440.6025)"><path
             d="m 0,0 c 0,-45.707 -37.053,-82.76 -82.76,-82.76 -45.708,0 -82.761,37.053 -82.761,82.76 0,45.708 37.053,82.761 82.761,82.761 C -37.053,82.761 0,45.708 0,0"
             style="fill:#002a3e;fill-opacity:1;fill-rule:nonzero;stroke:none"
             id="path523" /></g><g
           id="g525"
           transform="translate(1082.2601,440.6025)"><path
             d="m 0,0 c 0,-45.707 -37.053,-82.76 -82.76,-82.76 -45.708,0 -82.761,37.053 -82.761,82.76 0,45.708 37.053,82.761 82.761,82.761 C -37.053,82.761 0,45.708 0,0"
             style="fill:#002a3e;fill-opacity:1;fill-rule:nonzero;stroke:none"
             id="path527" /></g><g
           id="g529"
           transform="translate(1267.7172,440.6025)"><path
             d="m 0,0 c 0,-45.707 -37.053,-82.76 -82.76,-82.76 -45.708,0 -82.761,37.053 -82.761,82.76 0,45.708 37.053,82.761 82.761,82.761 C -37.053,82.761 0,45.708 0,0"
             style="fill:#002a3e;fill-opacity:1;fill-rule:nonzero;stroke:none"
             id="path531" /></g></g></g></g></svg>
