<?xml version="1.0" encoding="UTF-8" standalone="no"?>
<!-- Created with Inkscape (http://www.inkscape.org/) -->

<svg
   version="1.1"
   id="svg2"
   xml:space="preserve"
   width="2666.6667"
   height="2666.6667"
   viewBox="0 0 2666.6667 2666.6667"
   xmlns="http://www.w3.org/2000/svg"
   xmlns:svg="http://www.w3.org/2000/svg"><defs
     id="defs6"><clipPath
       clipPathUnits="userSpaceOnUse"
       id="clipPath16"><path
         d="M 0,2000 H 2000 V 0 H 0 Z"
         id="path14" /></clipPath></defs><g
     id="g8"
     transform="matrix(1.3333333,0,0,-1.3333333,0,2666.6667)"><g
       id="g10"><g
         id="g12"
         clip-path="url(#clipPath16)"><g
           id="g18"
           transform="translate(1080.1273,1550.2589)"><path
             d="m 0,0 c 0,-44.529 -36.099,-80.627 -80.627,-80.627 -44.529,0 -80.628,36.098 -80.628,80.627 0,44.529 36.099,80.627 80.628,80.627 C -36.099,80.627 0,44.529 0,0"
             style="fill:#002a3e;fill-opacity:1;fill-rule:nonzero;stroke:none"
             id="path20" /></g><g
           id="g22"
           transform="translate(718.7738,1185.2032)"><path
             d="m 0,0 c 0,-44.529 -36.098,-80.627 -80.627,-80.627 -44.529,0 -80.627,36.098 -80.627,80.627 0,44.529 36.098,80.627 80.627,80.627 C -36.098,80.627 0,44.529 0,0"
             style="fill:#002a3e;fill-opacity:1;fill-rule:nonzero;stroke:none"
             id="path24" /></g><g
           id="g26"
           transform="translate(718.7738,820.1476)"><path
             d="m 0,0 c 0,-44.529 -36.098,-80.628 -80.627,-80.628 -44.529,0 -80.627,36.099 -80.627,80.628 0,44.528 36.098,80.627 80.627,80.627 C -36.098,80.627 0,44.528 0,0"
             style="fill:#002a3e;fill-opacity:1;fill-rule:nonzero;stroke:none"
             id="path28" /></g><g
           id="g30"
           transform="translate(718.7738,1002.6749)"><path
             d="m 0,0 c 0,-44.529 -36.098,-80.627 -80.627,-80.627 -44.529,0 -80.627,36.098 -80.627,80.627 0,44.529 36.098,80.627 80.627,80.627 C -36.098,80.627 0,44.529 0,0"
             style="fill:#002a3e;fill-opacity:1;fill-rule:nonzero;stroke:none"
             id="path32" /></g><g
           id="g34"
           transform="translate(1441.4799,1002.6749)"><path
             d="m 0,0 c 0,-44.529 -36.098,-80.627 -80.627,-80.627 -44.529,0 -80.627,36.098 -80.627,80.627 0,44.529 36.098,80.627 80.627,80.627 C -36.098,80.627 0,44.529 0,0"
             style="fill:#002a3e;fill-opacity:1;fill-rule:nonzero;stroke:none"
             id="path36" /></g><g
           id="g38"
           transform="translate(1441.4799,820.1476)"><path
             d="m 0,0 c 0,-44.529 -36.098,-80.628 -80.627,-80.628 -44.529,0 -80.627,36.099 -80.627,80.628 0,44.528 36.098,80.627 80.627,80.627 C -36.098,80.627 0,44.528 0,0"
             style="fill:#002a3e;fill-opacity:1;fill-rule:nonzero;stroke:none"
             id="path40" /></g><g
           id="g42"
           transform="translate(718.7738,637.6193)"><path
             d="m 0,0 c 0,-44.529 -36.098,-80.627 -80.627,-80.627 -44.529,0 -80.627,36.098 -80.627,80.627 0,44.529 36.098,80.627 80.627,80.627 C -36.098,80.627 0,44.529 0,0"
             style="fill:#002a3e;fill-opacity:1;fill-rule:nonzero;stroke:none"
             id="path44" /></g><g
           id="g46"
           transform="translate(718.7738,455.0909)"><path
             d="m 0,0 c 0,-44.529 -36.098,-80.627 -80.627,-80.627 -44.529,0 -80.627,36.098 -80.627,80.627 0,44.529 36.098,80.627 80.627,80.627 C -36.098,80.627 0,44.529 0,0"
             style="fill:#002a3e;fill-opacity:1;fill-rule:nonzero;stroke:none"
             id="path48" /></g><g
           id="g50"
           transform="translate(899.4506,1367.7306)"><path
             d="m 0,0 c 0,-44.528 -36.098,-80.627 -80.627,-80.627 -44.529,0 -80.627,36.099 -80.627,80.627 0,44.529 36.098,80.628 80.627,80.628 C -36.098,80.628 0,44.529 0,0"
             style="fill:#002a3e;fill-opacity:1;fill-rule:nonzero;stroke:none"
             id="path52" /></g><g
           id="g54"
           transform="translate(899.4506,1185.2032)"><path
             d="m 0,0 c 0,-44.529 -36.098,-80.627 -80.627,-80.627 -44.529,0 -80.627,36.098 -80.627,80.627 0,44.529 36.098,80.627 80.627,80.627 C -36.098,80.627 0,44.529 0,0"
             style="fill:#002a3e;fill-opacity:1;fill-rule:nonzero;stroke:none"
             id="path56" /></g><g
           id="g58"
           transform="translate(1080.1273,1367.7306)"><path
             d="m 0,0 c 0,-44.528 -36.099,-80.627 -80.627,-80.627 -44.529,0 -80.628,36.099 -80.628,80.627 0,44.529 36.099,80.628 80.628,80.628 C -36.099,80.628 0,44.529 0,0"
             style="fill:#002a3e;fill-opacity:1;fill-rule:nonzero;stroke:none"
             id="path60" /></g><g
           id="g62"
           transform="translate(1080.1273,1185.2032)"><path
             d="m 0,0 c 0,-44.529 -36.099,-80.627 -80.627,-80.627 -44.529,0 -80.628,36.098 -80.628,80.627 0,44.529 36.099,80.627 80.628,80.627 C -36.099,80.627 0,44.529 0,0"
             style="fill:#002a3e;fill-opacity:1;fill-rule:nonzero;stroke:none"
             id="path64" /></g><g
           id="g66"
           transform="translate(1260.8041,1367.7306)"><path
             d="m 0,0 c 0,-44.528 -36.099,-80.627 -80.628,-80.627 -44.528,0 -80.627,36.099 -80.627,80.627 0,44.529 36.099,80.628 80.627,80.628 C -36.099,80.628 0,44.529 0,0"
             style="fill:#002a3e;fill-opacity:1;fill-rule:nonzero;stroke:none"
             id="path68" /></g><g
           id="g70"
           transform="translate(1260.8041,1185.2032)"><path
             d="m 0,0 c 0,-44.529 -36.099,-80.627 -80.628,-80.627 -44.528,0 -80.627,36.098 -80.627,80.627 0,44.529 36.099,80.627 80.627,80.627 C -36.099,80.627 0,44.529 0,0"
             style="fill:#002a3e;fill-opacity:1;fill-rule:nonzero;stroke:none"
             id="path72" /></g><g
           id="g74"
           transform="translate(1441.4799,1185.2032)"><path
             d="m 0,0 c 0,-44.529 -36.098,-80.627 -80.627,-80.627 -44.529,0 -80.627,36.098 -80.627,80.627 0,44.529 36.098,80.627 80.627,80.627 C -36.098,80.627 0,44.529 0,0"
             style="fill:#002a3e;fill-opacity:1;fill-rule:nonzero;stroke:none"
             id="path76" /></g><g
           id="g78"
           transform="translate(1441.4799,637.6193)"><path
             d="m 0,0 c 0,-44.529 -36.098,-80.627 -80.627,-80.627 -44.529,0 -80.627,36.098 -80.627,80.627 0,44.529 36.098,80.627 80.627,80.627 C -36.098,80.627 0,44.529 0,0"
             style="fill:#002a3e;fill-opacity:1;fill-rule:nonzero;stroke:none"
             id="path80" /></g><g
           id="g82"
           transform="translate(1441.4799,455.0909)"><path
             d="m 0,0 c 0,-44.529 -36.098,-80.627 -80.627,-80.627 -44.529,0 -80.627,36.098 -80.627,80.627 0,44.529 36.098,80.627 80.627,80.627 C -36.098,80.627 0,44.529 0,0"
             style="fill:#002a3e;fill-opacity:1;fill-rule:nonzero;stroke:none"
             id="path84" /></g><g
           id="g86"
           transform="translate(899.4506,455.0909)"><path
             d="m 0,0 c 0,-44.529 -36.098,-80.627 -80.627,-80.627 -44.529,0 -80.627,36.098 -80.627,80.627 0,44.529 36.098,80.627 80.627,80.627 C -36.098,80.627 0,44.529 0,0"
             style="fill:#002a3e;fill-opacity:1;fill-rule:nonzero;stroke:none"
             id="path88" /></g><g
           id="g90"
           transform="translate(1080.1273,455.0909)"><path
             d="m 0,0 c 0,-44.529 -36.099,-80.627 -80.627,-80.627 -44.529,0 -80.628,36.098 -80.628,80.627 0,44.529 36.099,80.627 80.628,80.627 C -36.099,80.627 0,44.529 0,0"
             style="fill:#002a3e;fill-opacity:1;fill-rule:nonzero;stroke:none"
             id="path92" /></g><g
           id="g94"
           transform="translate(1260.8041,455.0909)"><path
             d="m 0,0 c 0,-44.529 -36.099,-80.627 -80.628,-80.627 -44.528,0 -80.627,36.098 -80.627,80.627 0,44.529 36.099,80.627 80.627,80.627 C -36.099,80.627 0,44.529 0,0"
             style="fill:#002a3e;fill-opacity:1;fill-rule:nonzero;stroke:none"
             id="path96" /></g></g></g></g></svg>
