<?xml version="1.0" encoding="UTF-8" standalone="no"?>
<!-- Created with Inkscape (http://www.inkscape.org/) -->

<svg
   version="1.1"
   id="svg1141"
   xml:space="preserve"
   width="2666.6667"
   height="2666.6667"
   viewBox="0 0 2666.6667 2666.6667"
   xmlns="http://www.w3.org/2000/svg"
   xmlns:svg="http://www.w3.org/2000/svg"><defs
     id="defs1145"><clipPath
       clipPathUnits="userSpaceOnUse"
       id="clipPath1155"><path
         d="M 0,2000 H 2000 V 0 H 0 Z"
         id="path1153" /></clipPath></defs><g
     id="g1147"
     transform="matrix(1.3333333,0,0,-1.3333333,0,2666.6667)"><g
       id="g1149"><g
         id="g1151"
         clip-path="url(#clipPath1155)"><g
           id="g1157"
           transform="translate(630.6512,1093.394)"><path
             d="m 0,0 c 0,-44.263 -35.882,-80.146 -80.146,-80.146 -44.262,0 -80.145,35.883 -80.145,80.146 0,44.263 35.883,80.146 80.145,80.146 C -35.882,80.146 0,44.263 0,0"
             style="fill:#002a3e;fill-opacity:1;fill-rule:nonzero;stroke:none"
             id="path1159" /></g><g
           id="g1161"
           transform="translate(1349.0419,1093.394)"><path
             d="m 0,0 c 0,-44.263 -35.882,-80.146 -80.146,-80.146 -44.263,0 -80.145,35.883 -80.145,80.146 0,44.263 35.882,80.146 80.145,80.146 C -35.882,80.146 0,44.263 0,0"
             style="fill:#002a3e;fill-opacity:1;fill-rule:nonzero;stroke:none"
             id="path1163" /></g><g
           id="g1165"
           transform="translate(810.2489,1093.394)"><path
             d="m 0,0 c 0,-44.263 -35.882,-80.146 -80.146,-80.146 -44.262,0 -80.145,35.883 -80.145,80.146 0,44.263 35.883,80.146 80.145,80.146 C -35.882,80.146 0,44.263 0,0"
             style="fill:#002a3e;fill-opacity:1;fill-rule:nonzero;stroke:none"
             id="path1167" /></g><g
           id="g1169"
           transform="translate(989.8466,1456.27)"><path
             d="m 0,0 c 0,-44.263 -35.882,-80.146 -80.146,-80.146 -44.262,0 -80.145,35.883 -80.145,80.146 0,44.263 35.883,80.146 80.145,80.146 C -35.882,80.146 0,44.263 0,0"
             style="fill:#002a3e;fill-opacity:1;fill-rule:nonzero;stroke:none"
             id="path1171" /></g><g
           id="g1173"
           transform="translate(989.8466,1274.832)"><path
             d="m 0,0 c 0,-44.263 -35.882,-80.146 -80.146,-80.146 -44.262,0 -80.145,35.883 -80.145,80.146 0,44.263 35.883,80.146 80.145,80.146 C -35.882,80.146 0,44.263 0,0"
             style="fill:#002a3e;fill-opacity:1;fill-rule:nonzero;stroke:none"
             id="path1175" /></g><g
           id="g1177"
           transform="translate(989.8466,911.9561)"><path
             d="m 0,0 c 0,-44.264 -35.882,-80.146 -80.146,-80.146 -44.262,0 -80.145,35.882 -80.145,80.146 0,44.264 35.883,80.146 80.145,80.146 C -35.882,80.146 0,44.264 0,0"
             style="fill:#002a3e;fill-opacity:1;fill-rule:nonzero;stroke:none"
             id="path1179" /></g><g
           id="g1181"
           transform="translate(989.8466,1093.394)"><path
             d="m 0,0 c 0,-44.263 -35.882,-80.146 -80.146,-80.146 -44.262,0 -80.145,35.883 -80.145,80.146 0,44.263 35.883,80.146 80.145,80.146 C -35.882,80.146 0,44.263 0,0"
             style="fill:#002a3e;fill-opacity:1;fill-rule:nonzero;stroke:none"
             id="path1183" /></g><g
           id="g1185"
           transform="translate(989.8466,730.5176)"><path
             d="m 0,0 c 0,-44.263 -35.882,-80.146 -80.146,-80.146 -44.262,0 -80.145,35.883 -80.145,80.146 0,44.264 35.883,80.146 80.145,80.146 C -35.882,80.146 0,44.264 0,0"
             style="fill:#002a3e;fill-opacity:1;fill-rule:nonzero;stroke:none"
             id="path1187" /></g><g
           id="g1189"
           transform="translate(1169.4442,1456.27)"><path
             d="m 0,0 c 0,-44.263 -35.882,-80.146 -80.146,-80.146 -44.262,0 -80.145,35.883 -80.145,80.146 0,44.263 35.883,80.146 80.145,80.146 C -35.882,80.146 0,44.263 0,0"
             style="fill:#002a3e;fill-opacity:1;fill-rule:nonzero;stroke:none"
             id="path1191" /></g><g
           id="g1193"
           transform="translate(1169.4442,1274.832)"><path
             d="m 0,0 c 0,-44.263 -35.882,-80.146 -80.146,-80.146 -44.262,0 -80.145,35.883 -80.145,80.146 0,44.263 35.883,80.146 80.145,80.146 C -35.882,80.146 0,44.263 0,0"
             style="fill:#002a3e;fill-opacity:1;fill-rule:nonzero;stroke:none"
             id="path1195" /></g><g
           id="g1197"
           transform="translate(1169.4442,911.9561)"><path
             d="m 0,0 c 0,-44.264 -35.882,-80.146 -80.146,-80.146 -44.262,0 -80.145,35.882 -80.145,80.146 0,44.264 35.883,80.146 80.145,80.146 C -35.882,80.146 0,44.264 0,0"
             style="fill:#002a3e;fill-opacity:1;fill-rule:nonzero;stroke:none"
             id="path1199" /></g><g
           id="g1201"
           transform="translate(1169.4442,1093.394)"><path
             d="m 0,0 c 0,-44.263 -35.882,-80.146 -80.146,-80.146 -44.262,0 -80.145,35.883 -80.145,80.146 0,44.263 35.883,80.146 80.145,80.146 C -35.882,80.146 0,44.263 0,0"
             style="fill:#002a3e;fill-opacity:1;fill-rule:nonzero;stroke:none"
             id="path1203" /></g><g
           id="g1205"
           transform="translate(1169.4442,730.5176)"><path
             d="m 0,0 c 0,-44.263 -35.882,-80.146 -80.146,-80.146 -44.262,0 -80.145,35.883 -80.145,80.146 0,44.264 35.883,80.146 80.145,80.146 C -35.882,80.146 0,44.264 0,0"
             style="fill:#002a3e;fill-opacity:1;fill-rule:nonzero;stroke:none"
             id="path1207" /></g><g
           id="g1209"
           transform="translate(989.8466,549.0801)"><path
             d="m 0,0 c 0,-44.264 -35.882,-80.146 -80.146,-80.146 -44.262,0 -80.145,35.882 -80.145,80.146 0,44.263 35.883,80.146 80.145,80.146 C -35.882,80.146 0,44.263 0,0"
             style="fill:#002a3e;fill-opacity:1;fill-rule:nonzero;stroke:none"
             id="path1211" /></g><g
           id="g1213"
           transform="translate(1169.4442,549.0801)"><path
             d="m 0,0 c 0,-44.264 -35.882,-80.146 -80.146,-80.146 -44.262,0 -80.145,35.882 -80.145,80.146 0,44.263 35.883,80.146 80.145,80.146 C -35.882,80.146 0,44.263 0,0"
             style="fill:#002a3e;fill-opacity:1;fill-rule:nonzero;stroke:none"
             id="path1215" /></g><g
           id="g1217"
           transform="translate(1169.4442,1093.394)"><path
             d="m 0,0 c 0,-44.263 -35.882,-80.146 -80.146,-80.146 -44.262,0 -80.145,35.883 -80.145,80.146 0,44.263 35.883,80.146 80.145,80.146 C -35.882,80.146 0,44.263 0,0"
             style="fill:#002a3e;fill-opacity:1;fill-rule:nonzero;stroke:none"
             id="path1219" /></g><g
           id="g1221"
           transform="translate(630.6512,911.9561)"><path
             d="m 0,0 c 0,-44.264 -35.882,-80.146 -80.146,-80.146 -44.262,0 -80.145,35.882 -80.145,80.146 0,44.264 35.883,80.146 80.145,80.146 C -35.882,80.146 0,44.264 0,0"
             style="fill:#002a3e;fill-opacity:1;fill-rule:nonzero;stroke:none"
             id="path1223" /></g><g
           id="g1225"
           transform="translate(1349.0419,911.9561)"><path
             d="m 0,0 c 0,-44.264 -35.882,-80.146 -80.146,-80.146 -44.263,0 -80.145,35.882 -80.145,80.146 0,44.264 35.882,80.146 80.145,80.146 C -35.882,80.146 0,44.264 0,0"
             style="fill:#002a3e;fill-opacity:1;fill-rule:nonzero;stroke:none"
             id="path1227" /></g><g
           id="g1229"
           transform="translate(1528.6395,1093.394)"><path
             d="m 0,0 c 0,-44.263 -35.882,-80.146 -80.146,-80.146 -44.263,0 -80.145,35.883 -80.145,80.146 0,44.263 35.882,80.146 80.145,80.146 C -35.882,80.146 0,44.263 0,0"
             style="fill:#002a3e;fill-opacity:1;fill-rule:nonzero;stroke:none"
             id="path1231" /></g><g
           id="g1233"
           transform="translate(1528.6395,911.9561)"><path
             d="m 0,0 c 0,-44.264 -35.882,-80.146 -80.146,-80.146 -44.263,0 -80.145,35.882 -80.145,80.146 0,44.264 35.882,80.146 80.145,80.146 C -35.882,80.146 0,44.264 0,0"
             style="fill:#002a3e;fill-opacity:1;fill-rule:nonzero;stroke:none"
             id="path1235" /></g><g
           id="g1237"
           transform="translate(810.2489,911.9561)"><path
             d="m 0,0 c 0,-44.264 -35.882,-80.146 -80.146,-80.146 -44.262,0 -80.145,35.882 -80.145,80.146 0,44.264 35.883,80.146 80.145,80.146 C -35.882,80.146 0,44.264 0,0"
             style="fill:#002a3e;fill-opacity:1;fill-rule:nonzero;stroke:none"
             id="path1239" /></g><g
           id="g1241"
           transform="translate(989.8466,911.9561)"><path
             d="m 0,0 c 0,-44.264 -35.882,-80.146 -80.146,-80.146 -44.262,0 -80.145,35.882 -80.145,80.146 0,44.264 35.883,80.146 80.145,80.146 C -35.882,80.146 0,44.264 0,0"
             style="fill:#002a3e;fill-opacity:1;fill-rule:nonzero;stroke:none"
             id="path1243" /></g><g
           id="g1245"
           transform="translate(1169.4442,911.9561)"><path
             d="m 0,0 c 0,-44.264 -35.882,-80.146 -80.146,-80.146 -44.262,0 -80.145,35.882 -80.145,80.146 0,44.264 35.883,80.146 80.145,80.146 C -35.882,80.146 0,44.264 0,0"
             style="fill:#002a3e;fill-opacity:1;fill-rule:nonzero;stroke:none"
             id="path1247" /></g><g
           id="g1249"
           transform="translate(1169.4442,911.9561)"><path
             d="m 0,0 c 0,-44.264 -35.882,-80.146 -80.146,-80.146 -44.262,0 -80.145,35.882 -80.145,80.146 0,44.264 35.883,80.146 80.145,80.146 C -35.882,80.146 0,44.264 0,0"
             style="fill:#002a3e;fill-opacity:1;fill-rule:nonzero;stroke:none"
             id="path1251" /></g></g></g></g></svg>
