<?xml version="1.0" encoding="UTF-8" standalone="no"?>
<!-- Created with Inkscape (http://www.inkscape.org/) -->

<svg
   version="1.1"
   id="svg811"
   xml:space="preserve"
   width="2666.6667"
   height="2666.6667"
   viewBox="0 0 2666.6667 2666.6667"
   xmlns="http://www.w3.org/2000/svg"
   xmlns:svg="http://www.w3.org/2000/svg"><defs
     id="defs815"><clipPath
       clipPathUnits="userSpaceOnUse"
       id="clipPath825"><path
         d="M 0,2000 H 2000 V 0 H 0 Z"
         id="path823" /></clipPath></defs><g
     id="g817"
     transform="matrix(1.3333333,0,0,-1.3333333,0,2666.6667)"><g
       id="g819"><g
         id="g821"
         clip-path="url(#clipPath825)"><g
           id="g827"
           transform="translate(896.8036,1564.7472)"><path
             d="m 0,0 c 0,-45.707 -37.053,-82.761 -82.761,-82.761 -45.707,0 -82.76,37.054 -82.76,82.761 0,45.707 37.053,82.761 82.76,82.761 C -37.053,82.761 0,45.707 0,0"
             style="fill:#002a3e;fill-opacity:1;fill-rule:nonzero;stroke:none"
             id="path829" /></g><g
           id="g831"
           transform="translate(711.3466,1564.7472)"><path
             d="m 0,0 c 0,-45.707 -37.053,-82.761 -82.761,-82.761 -45.707,0 -82.76,37.054 -82.76,82.761 0,45.707 37.053,82.761 82.76,82.761 C -37.053,82.761 0,45.707 0,0"
             style="fill:#002a3e;fill-opacity:1;fill-rule:nonzero;stroke:none"
             id="path833" /></g><g
           id="g835"
           transform="translate(1082.2606,1564.7472)"><path
             d="m 0,0 c 0,-45.707 -37.054,-82.761 -82.761,-82.761 -45.707,0 -82.76,37.054 -82.76,82.761 0,45.707 37.053,82.761 82.76,82.761 C -37.054,82.761 0,45.707 0,0"
             style="fill:#002a3e;fill-opacity:1;fill-rule:nonzero;stroke:none"
             id="path837" /></g><g
           id="g839"
           transform="translate(1267.7177,1564.7472)"><path
             d="m 0,0 c 0,-45.707 -37.054,-82.761 -82.761,-82.761 -45.707,0 -82.76,37.054 -82.76,82.761 0,45.707 37.053,82.761 82.76,82.761 C -37.054,82.761 0,45.707 0,0"
             style="fill:#002a3e;fill-opacity:1;fill-rule:nonzero;stroke:none"
             id="path841" /></g><g
           id="g843"
           transform="translate(711.3466,1377.3898)"><path
             d="m 0,0 c 0,-45.707 -37.053,-82.761 -82.761,-82.761 -45.707,0 -82.76,37.054 -82.76,82.761 0,45.707 37.053,82.761 82.76,82.761 C -37.053,82.761 0,45.707 0,0"
             style="fill:#002a3e;fill-opacity:1;fill-rule:nonzero;stroke:none"
             id="path845" /></g><g
           id="g847"
           transform="translate(1453.1747,1377.3898)"><path
             d="m 0,0 c 0,-45.707 -37.054,-82.761 -82.761,-82.761 -45.707,0 -82.76,37.054 -82.76,82.761 0,45.707 37.053,82.761 82.76,82.761 C -37.054,82.761 0,45.707 0,0"
             style="fill:#002a3e;fill-opacity:1;fill-rule:nonzero;stroke:none"
             id="path849" /></g><g
           id="g851"
           transform="translate(1453.1747,1564.7472)"><path
             d="m 0,0 c 0,-45.707 -37.054,-82.761 -82.761,-82.761 -45.707,0 -82.76,37.054 -82.76,82.761 0,45.707 37.053,82.761 82.76,82.761 C -37.054,82.761 0,45.707 0,0"
             style="fill:#002a3e;fill-opacity:1;fill-rule:nonzero;stroke:none"
             id="path853" /></g><g
           id="g855"
           transform="translate(711.3466,1190.0323)"><path
             d="m 0,0 c 0,-45.707 -37.053,-82.761 -82.761,-82.761 -45.707,0 -82.76,37.054 -82.76,82.761 0,45.707 37.053,82.761 82.76,82.761 C -37.053,82.761 0,45.707 0,0"
             style="fill:#002a3e;fill-opacity:1;fill-rule:nonzero;stroke:none"
             id="path857" /></g><g
           id="g859"
           transform="translate(711.3466,815.3175)"><path
             d="m 0,0 c 0,-45.707 -37.053,-82.761 -82.761,-82.761 -45.707,0 -82.76,37.054 -82.76,82.761 0,45.707 37.053,82.761 82.76,82.761 C -37.053,82.761 0,45.707 0,0"
             style="fill:#002a3e;fill-opacity:1;fill-rule:nonzero;stroke:none"
             id="path861" /></g><g
           id="g863"
           transform="translate(711.3466,1002.6749)"><path
             d="m 0,0 c 0,-45.707 -37.053,-82.761 -82.761,-82.761 -45.707,0 -82.76,37.054 -82.76,82.761 0,45.707 37.053,82.761 82.76,82.761 C -37.053,82.761 0,45.707 0,0"
             style="fill:#002a3e;fill-opacity:1;fill-rule:nonzero;stroke:none"
             id="path865" /></g><g
           id="g867"
           transform="translate(1453.1747,1190.0323)"><path
             d="m 0,0 c 0,-45.707 -37.054,-82.761 -82.761,-82.761 -45.707,0 -82.76,37.054 -82.76,82.761 0,45.707 37.053,82.761 82.76,82.761 C -37.054,82.761 0,45.707 0,0"
             style="fill:#002a3e;fill-opacity:1;fill-rule:nonzero;stroke:none"
             id="path869" /></g><g
           id="g871"
           transform="translate(1453.1747,1002.6749)"><path
             d="m 0,0 c 0,-45.707 -37.054,-82.761 -82.761,-82.761 -45.707,0 -82.76,37.054 -82.76,82.761 0,45.707 37.053,82.761 82.76,82.761 C -37.054,82.761 0,45.707 0,0"
             style="fill:#002a3e;fill-opacity:1;fill-rule:nonzero;stroke:none"
             id="path873" /></g><g
           id="g875"
           transform="translate(1453.1747,815.3175)"><path
             d="m 0,0 c 0,-45.707 -37.054,-82.761 -82.761,-82.761 -45.707,0 -82.76,37.054 -82.76,82.761 0,45.707 37.053,82.761 82.76,82.761 C -37.054,82.761 0,45.707 0,0"
             style="fill:#002a3e;fill-opacity:1;fill-rule:nonzero;stroke:none"
             id="path877" /></g><g
           id="g879"
           transform="translate(711.3466,627.9601)"><path
             d="m 0,0 c 0,-45.707 -37.053,-82.761 -82.761,-82.761 -45.707,0 -82.76,37.054 -82.76,82.761 0,45.707 37.053,82.761 82.76,82.761 C -37.053,82.761 0,45.707 0,0"
             style="fill:#002a3e;fill-opacity:1;fill-rule:nonzero;stroke:none"
             id="path881" /></g><g
           id="g883"
           transform="translate(711.3466,440.6027)"><path
             d="m 0,0 c 0,-45.707 -37.053,-82.76 -82.761,-82.76 -45.707,0 -82.76,37.053 -82.76,82.76 0,45.708 37.053,82.761 82.76,82.761 C -37.053,82.761 0,45.708 0,0"
             style="fill:#002a3e;fill-opacity:1;fill-rule:nonzero;stroke:none"
             id="path885" /></g><g
           id="g887"
           transform="translate(896.8036,1002.6749)"><path
             d="m 0,0 c 0,-45.707 -37.053,-82.761 -82.761,-82.761 -45.707,0 -82.76,37.054 -82.76,82.761 0,45.707 37.053,82.761 82.76,82.761 C -37.053,82.761 0,45.707 0,0"
             style="fill:#002a3e;fill-opacity:1;fill-rule:nonzero;stroke:none"
             id="path889" /></g><g
           id="g891"
           transform="translate(1082.2606,1377.3898)"><path
             d="m 0,0 c 0,-45.707 -37.054,-82.761 -82.761,-82.761 -45.707,0 -82.76,37.054 -82.76,82.761 0,45.707 37.053,82.761 82.76,82.761 C -37.054,82.761 0,45.707 0,0"
             style="fill:#002a3e;fill-opacity:1;fill-rule:nonzero;stroke:none"
             id="path893" /></g><g
           id="g895"
           transform="translate(1082.2606,1190.0323)"><path
             d="m 0,0 c 0,-45.707 -37.054,-82.761 -82.761,-82.761 -45.707,0 -82.76,37.054 -82.76,82.761 0,45.707 37.053,82.761 82.76,82.761 C -37.054,82.761 0,45.707 0,0"
             style="fill:#002a3e;fill-opacity:1;fill-rule:nonzero;stroke:none"
             id="path897" /></g><g
           id="g899"
           transform="translate(1082.2606,815.3175)"><path
             d="m 0,0 c 0,-45.707 -37.054,-82.761 -82.761,-82.761 -45.707,0 -82.76,37.054 -82.76,82.761 0,45.707 37.053,82.761 82.76,82.761 C -37.054,82.761 0,45.707 0,0"
             style="fill:#002a3e;fill-opacity:1;fill-rule:nonzero;stroke:none"
             id="path901" /></g><g
           id="g903"
           transform="translate(1082.2606,1002.6749)"><path
             d="m 0,0 c 0,-45.707 -37.054,-82.761 -82.761,-82.761 -45.707,0 -82.76,37.054 -82.76,82.761 0,45.707 37.053,82.761 82.76,82.761 C -37.054,82.761 0,45.707 0,0"
             style="fill:#002a3e;fill-opacity:1;fill-rule:nonzero;stroke:none"
             id="path905" /></g><g
           id="g907"
           transform="translate(1082.2606,627.9601)"><path
             d="m 0,0 c 0,-45.707 -37.054,-82.761 -82.761,-82.761 -45.707,0 -82.76,37.054 -82.76,82.761 0,45.707 37.053,82.761 82.76,82.761 C -37.054,82.761 0,45.707 0,0"
             style="fill:#002a3e;fill-opacity:1;fill-rule:nonzero;stroke:none"
             id="path909" /></g><g
           id="g911"
           transform="translate(1267.7177,1002.6749)"><path
             d="m 0,0 c 0,-45.707 -37.054,-82.761 -82.761,-82.761 -45.707,0 -82.76,37.054 -82.76,82.761 0,45.707 37.053,82.761 82.76,82.761 C -37.054,82.761 0,45.707 0,0"
             style="fill:#002a3e;fill-opacity:1;fill-rule:nonzero;stroke:none"
             id="path913" /></g><g
           id="g915"
           transform="translate(1453.1747,627.9601)"><path
             d="m 0,0 c 0,-45.707 -37.054,-82.761 -82.761,-82.761 -45.707,0 -82.76,37.054 -82.76,82.761 0,45.707 37.053,82.761 82.76,82.761 C -37.054,82.761 0,45.707 0,0"
             style="fill:#002a3e;fill-opacity:1;fill-rule:nonzero;stroke:none"
             id="path917" /></g><g
           id="g919"
           transform="translate(1453.1747,440.6027)"><path
             d="m 0,0 c 0,-45.707 -37.054,-82.76 -82.761,-82.76 -45.707,0 -82.76,37.053 -82.76,82.76 0,45.708 37.053,82.761 82.76,82.761 C -37.054,82.761 0,45.708 0,0"
             style="fill:#002a3e;fill-opacity:1;fill-rule:nonzero;stroke:none"
             id="path921" /></g><g
           id="g923"
           transform="translate(896.8036,440.6027)"><path
             d="m 0,0 c 0,-45.707 -37.053,-82.76 -82.761,-82.76 -45.707,0 -82.76,37.053 -82.76,82.76 0,45.708 37.053,82.761 82.76,82.761 C -37.053,82.761 0,45.708 0,0"
             style="fill:#002a3e;fill-opacity:1;fill-rule:nonzero;stroke:none"
             id="path925" /></g><g
           id="g927"
           transform="translate(1082.2606,440.6027)"><path
             d="m 0,0 c 0,-45.707 -37.054,-82.76 -82.761,-82.76 -45.707,0 -82.76,37.053 -82.76,82.76 0,45.708 37.053,82.761 82.76,82.761 C -37.054,82.761 0,45.708 0,0"
             style="fill:#002a3e;fill-opacity:1;fill-rule:nonzero;stroke:none"
             id="path929" /></g><g
           id="g931"
           transform="translate(1267.7177,440.6027)"><path
             d="m 0,0 c 0,-45.707 -37.054,-82.76 -82.761,-82.76 -45.707,0 -82.76,37.053 -82.76,82.76 0,45.708 37.053,82.761 82.76,82.761 C -37.054,82.761 0,45.708 0,0"
             style="fill:#002a3e;fill-opacity:1;fill-rule:nonzero;stroke:none"
             id="path933" /></g></g></g></g></svg>
